<?xml version="1.0" encoding="iso-8859-1"?>
<!-- Generator: Adobe Illustrator 19.0.0, SVG Export Plug-In . SVG Version: 6.00 Build 0)  -->
<svg version="1.1" id="Capa_1" xmlns="http://www.w3.org/2000/svg" xmlns:xlink="http://www.w3.org/1999/xlink" x="0px" y="0px"
	 viewBox="0 0 512 512" style="enable-background:new 0 0 512 512;" xml:space="preserve">
<g>
	<path style="fill:#676E83;" d="M339.992,250.001c16.568,0,29.999-13.432,29.999-29.999s-13.432-29.999-29.999-29.999V140
		c0-71.796-58.201-129.997-129.997-129.997S80,68.204,80,140v50.002C63.431,190.002,50,203.434,50,220.002
		S63.431,250.001,80,250.001h9.998c0,28.432,10.021,54.636,26.706,75.257c5.823,7.196,12.458,13.713,19.763,19.406
		c20.347,15.86,45.884,25.334,73.532,25.334c27.644,0,53.183-9.474,73.531-25.334c7.303-5.695,13.938-12.212,19.761-19.409
		c16.684-20.62,26.705-46.823,26.705-75.254L339.992,250.001L339.992,250.001z M209.995,179.58
		c64.028,0,115.933,21.855,115.933,48.813c0,26.96-51.904,48.814-115.933,48.814c-64.027,0-115.932-21.855-115.932-48.814
		C94.063,201.435,145.968,179.58,209.995,179.58z"/>
	<ellipse style="fill:#FFC28C;" cx="209.996" cy="228.395" rx="115.938" ry="48.814"/>
	<path style="fill:#B5B5C4;" d="M209.993,369.997L209.993,369.997L209.993,369.997z M283.528,344.663
		c-20.349,15.86-45.887,25.334-73.531,25.334c-27.648,0-53.186-9.474-73.532-25.334c10.322,38.244,39.041,97.106,73.532,134.008
		C244.938,441.847,273.104,383.283,283.528,344.663z"/>
	<g>
		<path style="fill:#F44F5C;" d="M209.997,478.671c-34.49-36.901-63.21-95.763-73.532-134.008
			c-7.305-5.693-13.939-12.21-19.763-19.406c-6.442,3.425-12.679,7.191-18.684,11.276l4.655,17.25
			c12.299,45.572,42.294,107.39,79.869,148.211h54.887c-0.277-0.173-0.553-0.348-0.829-0.523
			C227.505,495.665,218.573,487.848,209.997,478.671z"/>
		<path style="fill:#F44F5C;" d="M283.528,344.663c-10.424,38.619-38.59,97.184-73.531,134.008
			c8.576,9.177,17.508,16.994,26.604,22.801c3.457-3.644,5.575-6.115,8.801-9.964c31.788-37.935,59.693-92.434,71.917-137.725
			l4.656-17.251c-6.006-4.085-12.243-7.853-18.686-11.278C297.466,332.452,290.831,338.969,283.528,344.663z"/>
	</g>
	<g>
		<path style="fill:#676E83;" d="M317.318,353.783c-12.224,45.29-40.128,99.788-71.917,137.725c-3.226,3.849-5.344,6.32-8.801,9.964
			c0.276,0.176,0.552,0.351,0.829,0.523h112.564h59.999c0-38.357-10.945-74.28-29.864-104.802
			c-9.44-15.227-20.863-29.108-33.901-41.279c-7.564-7.06-15.673-13.544-24.253-19.381L317.318,353.783z"/>
		<path style="fill:#676E83;" d="M182.544,501.995c-37.574-40.82-67.57-102.639-79.869-148.211l-4.655-17.25
			C45.001,372.597,10,433.402,10,501.995h59.999H182.544z"/>
	</g>
	<path style="fill:#8D8D98;" d="M346.227,355.913c13.039,12.171,24.463,26.054,33.901,41.279l26.228-45.428l6.448-11.168l-43.301-25
		L346.227,355.913z"/>
	<path style="fill:#FFD273;" d="M445.369,339.191L445.369,339.191L445.369,339.191z M354.438,286.692L354.438,286.692
		L354.438,286.692z M369.504,315.598l43.301,25l8.66,5.001c8.336,4.812,19.093,1.93,23.905-6.406
		c4.813-8.335,1.931-19.093-6.405-23.905l-8.661-5l-43.3-25l-8.661-5c-8.335-4.813-19.092-1.93-23.905,6.406
		c-4.811,8.335-1.93,19.092,6.405,23.904L369.504,315.598z"/>
	<polygon style="fill:#B5B5C4;" points="387.003,285.287 430.303,310.287 459.261,260.133 393.916,273.315 	"/>
	<polygon style="fill:#8D8D98;" points="393.916,273.315 459.261,260.133 435.615,201.089 	"/>
	<polygon style="fill:#B5B5C4;" points="435.615,201.089 459.261,260.133 486.436,213.061 443.136,188.062 	"/>
	<path style="fill:#FFD273;" d="M443.136,188.062l43.301,24.999l14.199-24.594c2.801-4.851,1.124-11.112-3.728-13.913l-25.66-14.814
		c-4.852-2.801-11.112-1.124-13.913,3.727L443.136,188.062z"/>
</g>
<path d="M259.995,235.115c6.885,0,12.501-5.616,12.501-12.501c0-6.886-5.616-12.501-12.501-12.501
	c-6.886,0-12.501,5.615-12.501,12.501C247.495,229.499,253.11,235.115,259.995,235.115z"/>
<path d="M159.996,235.115c6.885,0,12.5-5.616,12.5-12.501c0-6.886-5.615-12.501-12.5-12.501c-6.886,0-12.502,5.615-12.502,12.501
	C147.494,229.499,153.11,235.115,159.996,235.115z"/>
<path d="M168.652,64.447c1.457,0,2.936-0.319,4.336-0.995l0.414-0.199c4.975-2.398,7.063-8.376,4.664-13.351
	c-2.399-4.974-8.374-7.063-13.351-4.663l-0.414,0.199c-4.975,2.399-7.063,8.376-4.663,13.351
	C161.361,62.363,164.932,64.447,168.652,64.447z"/>
<path d="M121.389,104.235c1.498,0.797,3.105,1.175,4.691,1.175c3.577,0,7.037-1.925,8.835-5.303
	c4.488-8.43,10.329-16.003,17.361-22.51c4.053-3.751,4.298-10.078,0.547-14.132c-3.751-4.053-10.078-4.299-14.131-0.548
	c-8.678,8.03-15.888,17.381-21.43,27.791C114.666,95.584,116.515,101.64,121.389,104.235z"/>
<path d="M511.301,178.155c-1.397-5.217-4.733-9.571-9.393-12.261l-25.66-14.814c-9.64-5.565-22.009-2.252-27.573,7.388
	l-14.197,24.59c-0.001,0.002-0.002,0.003-0.003,0.005c-0.001,0.002-0.002,0.003-0.003,0.005l-51.13,88.56l-0.001-0.001
	c-4.159-2.401-8.896-3.671-13.699-3.671c-9.828,0-18.973,5.264-23.866,13.738c-7.581,13.131-3.065,29.981,10.065,37.563l0.001,0.001
	L343.696,340.3c-8.01-6.616-16.564-12.688-25.618-18.148c12.091-18.052,19.787-39.281,21.535-62.151h0.38
	c22.056,0,39.999-17.944,39.999-39.999c0-18.604-12.768-34.281-29.999-38.733v-41.268c0-77.194-62.803-139.997-139.997-139.997
	S70,62.806,70,140v41.268C52.767,185.72,40,201.398,40,220.002c0,22.056,17.944,39.999,39.999,39.999h0.379
	c1.748,22.871,9.445,44.102,21.536,62.153C38.765,360.241,0,428.124,0,501.995c0,5.522,4.477,10,10,10h227.407
	c0.004,0,0.009,0.001,0.014,0.001s0.01-0.001,0.016-0.001h172.557c5.522,0,10-4.478,10-10c0-37.589-10.037-73.628-28.216-104.979
	l24.687-42.757l0.001,0.001c4.159,2.4,8.897,3.67,13.699,3.67c9.829,0,18.974-5.265,23.865-13.737
	c3.663-6.344,4.632-13.753,2.728-20.861c-1.905-7.109-6.448-13.041-12.793-16.704l-0.001-0.001l51.133-88.563l0.001-0.001
	c0,0,0-0.001,0.001-0.001l14.198-24.593C511.986,188.809,512.698,183.371,511.301,178.155z M466.249,168.4l25.66,14.814
	c0.075,0.044,0.111,0.177,0.067,0.253l-9.199,15.934l-25.981-14.999l9.2-15.935C466.041,168.391,466.175,168.358,466.249,168.4z
	 M433.983,223.913l11.53,28.79l-31.863,6.429L433.983,223.913z M460.891,237.306l-14.188-35.425l0.092-0.159l25.981,14.999
	L460.891,237.306z M371.066,401.406c0.326,0.703,0.735,1.368,1.223,1.985c16.137,26.444,25.768,56.773,27.441,88.602h-39.735
	v-44.232c0-5.522-4.478-10-10-10c-5.523,0-10,4.478-10,10v44.232h-82.101c30.059-37.859,56.83-90.224,69.078-135.606l0.86-3.189
	c3.736,2.957,7.35,6.039,10.832,9.243c0.467,0.541,0.994,1.04,1.586,1.48C352.144,375.121,362.487,387.726,371.066,401.406z
	 M124.205,272.1c23.139,9.743,53.607,15.108,85.79,15.108c32.184,0,62.653-5.365,85.791-15.108
	c9.62-4.051,17.63-8.741,23.903-13.921c-1.661,22.491-10.114,43.122-23.313,59.846c-0.599,0.572-1.129,1.229-1.583,1.961
	c-4.905,5.934-10.423,11.342-16.45,16.135c-0.652,0.396-1.258,0.868-1.808,1.405c-18.49,14.091-41.554,22.472-66.544,22.472
	c-24.982,0-48.04-8.377-66.528-22.462c-0.553-0.542-1.164-1.018-1.822-1.416c-6.02-4.788-11.532-10.19-16.433-16.114
	c-0.461-0.747-1.002-1.416-1.613-1.997c-13.19-16.721-21.638-37.346-23.298-59.83C106.574,263.359,114.584,268.05,124.205,272.1z
	 M104.063,228.393c0-8.469,10.431-17.917,27.902-25.273c20.739-8.732,48.45-13.542,78.03-13.542c29.58,0,57.292,4.81,78.031,13.542
	c17.472,7.357,27.902,16.805,27.902,25.273c0,8.469-10.431,17.917-27.902,25.273c-20.739,8.732-48.451,13.542-78.031,13.542
	s-57.291-4.81-78.03-13.542C114.494,246.31,104.063,236.862,104.063,228.393z M209.997,379.997c19.81,0,38.594-4.461,55.413-12.421
	c-12.204,31.712-32.172,68.792-55.415,96.111c-23.191-27.557-43.201-64.819-55.341-96.077
	C171.455,375.549,190.215,379.997,209.997,379.997z M310.433,340.925l-2.768,10.253c-12.203,45.214-39.651,97.775-69.927,133.906
	c-0.986,1.177-1.84,2.189-2.645,3.128c-3.834-2.921-7.631-6.205-11.374-9.792c32.878-37.803,57.982-90.999,68.538-127.837
	c4.734-3.88,9.19-8.087,13.333-12.586C307.221,338.953,308.837,339.927,310.433,340.925z M60,220.002c0-11.028,8.972-20,20-20
	c5.523,0,10-4.478,10-10V140c0-66.167,53.83-119.997,119.996-119.997c66.167,0,119.997,53.83,119.997,119.997v50.002
	c0,5.522,4.477,10,10,10c11.028,0,20,8.972,20,20c0,11.028-8.972,20-20,20h-6.303c1.476-3.753,2.238-7.633,2.238-11.607
	c0-17.285-14.256-32.807-40.141-43.706c-23.139-9.743-53.607-15.108-85.791-15.108s-62.652,5.365-85.79,15.108
	c-25.885,10.899-40.14,26.422-40.14,43.706c0,3.975,0.763,7.854,2.238,11.607h-6.303C68.972,240.001,60,231.029,60,220.002z
	 M127.741,350.588c11.554,40.087,42.591,103.796,81.269,141.407h-22.013c-36.366-40.997-63.6-99.811-74.667-140.817l-2.767-10.252
	c1.595-0.998,3.209-1.972,4.84-2.927C118.549,342.499,123.005,346.707,127.741,350.588z M92.16,353.201l0.86,3.188
	c10.535,39.034,35.004,93.42,67.979,135.606H79.999v-44.232c0-5.522-4.477-10-10-10c-5.523,0-10,4.478-10,10v44.232H20.264
	C23.144,437.242,49.561,386.923,92.16,353.201z M379.514,378.259c-6.253-8.535-13.164-16.617-20.688-24.169l14.337-24.832l25.982,15
	L379.514,378.259z M436.709,334.193c-1.331,2.305-3.839,3.735-6.545,3.735c-1.316,0-2.561-0.333-3.7-0.99l-8.646-4.992
	c-0.005-0.002-0.01-0.006-0.015-0.009s-0.01-0.005-0.016-0.008l-43.277-24.987c-0.003-0.002-0.005-0.003-0.008-0.005
	s-0.006-0.003-0.009-0.004l-8.652-4.996c-3.581-2.067-4.812-6.664-2.744-10.245c1.331-2.305,3.839-3.736,6.545-3.736
	c1.315,0,2.56,0.334,3.699,0.991l51.955,29.995c0.002,0.001,0.004,0.003,0.006,0.004c0.001,0.001,0.003,0.001,0.005,0.002
	l8.656,4.998c1.719,0.992,2.952,2.611,3.474,4.56C437.96,330.455,437.701,332.474,436.709,334.193z M401.341,282.018l38.184-7.703
	l-12.882,22.312L401.341,282.018z"/>
<g>
</g>
<g>
</g>
<g>
</g>
<g>
</g>
<g>
</g>
<g>
</g>
<g>
</g>
<g>
</g>
<g>
</g>
<g>
</g>
<g>
</g>
<g>
</g>
<g>
</g>
<g>
</g>
<g>
</g>
</svg>
