<svg height="512" viewBox="0 0 51 60" width="512" xmlns="http://www.w3.org/2000/svg"><g id="Page-1" fill="none" fill-rule="evenodd"><g id="044---Ninja-Costume" fill-rule="nonzero"><path id="Shape" d="m46 19c.0422834 2.0284799-.2240938 4.0515984-.79 6-2.08 6.79-8.1 8-15.21 8s-13.13-1.21-15.21-8c-.5659062-1.9484016-.8322834-3.9715201-.79-6 0 0 5-4 16-4s16 4 16 4z" fill="#3f51b5"/><path id="Shape" d="m30 15c-.518 0-1.009.017-1.5.034 9.946.342 14.5 3.966 14.5 3.966.0422834 2.0284799-.2240938 4.0515984-.79 6-1.932 6.306-7.264 7.8-13.71 7.978.494.014.993.022 1.5.022 7.11 0 13.13-1.21 15.21-8 .5659062-1.9484016.8322834-3.9715201.79-6 0 0-5-4-16-4z" fill="#283593"/><path id="Shape" d="m22 45v-5l-2.82 4.53-5.29-3.02 1.77-3.54c1.523813-3.0491065 4.6413284-4.9738334 8.05-4.97h3.29s1 3 3 4c2.4373912 1.9547659 3.898622 4.8772275 4 8z" fill="#3f51b5"/><path id="Shape" d="m30 37c-2-1-3-4-3-4h-3s1 3 3 4c2.4373912 1.9547659 3.898622 4.8772275 4 8h3c-.101378-3.1227725-1.5626088-6.0452341-4-8z" fill="#283593"/><path id="Shape" d="m19.18 44.53-.5.81c-.401036.806067-1.1428849 1.3894085-2.0207963 1.5890219s-1.7990583-.0056076-2.5092037-.5590219c-1.1302982-.9245241-1.4560452-2.5156733-.78-3.81l.52-1.05z" fill="#ffe0b2"/><path id="Shape" d="m46.11 41.51-5.29 3.02-2.82-4.53v5h-4c-.101378-3.1227725-1.5626088-6.0452341-4-8 2-1 3-4 3-4h3.29c3.4086716-.0038334 6.526187 1.9208935 8.05 4.97z" fill="#3f51b5"/><path id="Shape" d="m44.34 37.97c-1.523813-3.0491065-4.6413284-4.9738334-8.05-4.97l-3-.0000057c3.4086716-.0038277 6.526187 1.9208992 8.05 4.9700057l1.77 3.54-3.077 1.756.787 1.264 5.29-3.02z" fill="#283593"/><path id="Shape" d="m40 55c-8.583 0-8 .05-8-.1.083497-1.9004907-.389136-3.7840722-1.36-5.42-.43-.64-.87-.64-1.28 0-.9809072 1.6684227-1.4535638 3.5868526-1.36 5.52h-8c-.0218349-2.9185101.5745798-5.808565 1.75-8.48.201168-.4801116.2867992-1.0007491.25-1.52h16c-.0379099.5160513.047794 1.033703.25 1.51 1.1756741 2.6748752 1.7720685 5.5682403 1.75 8.49z" fill="#3f51b5"/><g fill="#283593"><path id="Shape" d="m38.25 46.51c-.1688371-.3773099-.254118-.7866578-.25-1.2v-.31h-3v.31c-.004118.4133422.0811629.8226901.25 1.2 1.1756741 2.6748752 1.7720685 5.5682403 1.75 8.49h3c.0220685-2.9217597-.5743259-5.8151248-1.75-8.49z"/><path id="Shape" d="m28 55c-.0013242 1.2084751-.5474417 2.3519401-1.4865425 3.1125342-.9391009.7605941-2.171075 1.0572363-3.3534575.8074658-1.8305503-.4227613-3.1353931-2.0414272-3.16-3.92z"/><path id="Shape" d="m40 55c-.0006544 1.1423333-.4896832 2.2298838-1.3437901 2.988453s-1.9917895 1.1157714-3.1262099.981547c-1.9923475-.2731974-3.4873076-1.9592746-3.52-3.97z"/></g><path id="Shape" d="m45.85 46.36c-.7088231.5541165-1.6289182.7608514-2.5066513.5632161-.8777332-.1976353-1.6204265-.7787729-2.0233487-1.5832161l-.5-.81 5.29-3.02.52 1.05c.6770318 1.2909426.3508273 2.8801443-.78 3.8z" fill="#ffe0b2"/><path id="Shape" d="m50 22c0 1.6568542-1.3431458 3-3 3h-1.79c.5659062-1.9484016.8322834-3.9715201.79-6h1c1.6568542 0 3 1.3431458 3 3z" fill="#283593"/><path id="Shape" d="m14.79 25h-1.79c-1.6568542 0-2.9999999-1.3431458-2.9999999-3s1.3431457-3 2.9999999-3h1c-.0422834 2.0284799.2240938 4.0515984.79 6z" fill="#283593"/><path id="Shape" d="m46 13v6c-1.3998025-.9845695-2.9452038-1.7437732-4.58-2.25-7.4335287-2.3400109-15.4064713-2.3400109-22.84 0-1.6347962.5062268-3.1801975 1.2654305-4.58 2.25v-6s5-4 16-4 16 4 16 4z" fill="#f5f5f5"/><path id="Shape" d="m30 9c-.518 0-1.009.017-1.5.034 9.946.342 14.5 3.966 14.5 3.966v4.362c1.0616016.4247107 2.0687233.9745991 3 1.638v-6s-5-4-16-4z" fill="#cfd8dc"/><path id="Shape" d="m46 12v1s-5-4-16-4-16 4-16 4v-1c0-4 2-11 16-11s16 7 16 11z" fill="#3f51b5"/><path id="Shape" d="m30 1c-.518 0-1.014.012-1.5.031 11.953.459 14.265 6.412 14.481 10.316 1.0695386.4267549 2.083293.9818182 3.019 1.653v-1c0-4-2-11-16-11z" fill="#283593"/><path id="Shape" d="m42 21c0 2.95-.79 7-5.15 7-4.89 0-3.91-2-6.85-2s-1.96 2-6.85 2c-4.36 0-5.15-4.05-5.15-7-.0217964-1.4377913.1737433-2.8706253.58-4.25 3.6818536-1.2185425 7.5422068-1.8101028 11.42-1.75 3.8777932-.0601028 7.7381464.5314575 11.42 1.75.4062567 1.3793747.6017964 2.8122087.58 4.25z" fill="#ffe0b2"/><path id="Shape" d="m41.42 16.75c-3.6818536-1.2185425-7.5422068-1.8101028-11.42-1.75-.516 0-1.01.014-1.5.031 3.3741707.0721874 6.7182731.6516745 9.92 1.719.4062567 1.3793747.6017964 2.8122087.58 4.25 0 2.658-.651 6.2-3.967 6.876.6016552.0872623 1.2090679.1287148 1.817.124 4.36 0 5.15-4.05 5.15-7 .0217964-1.4377913-.1737433-2.8706253-.58-4.25z" fill="#dfc49c"/><circle id="Oval" cx="24" cy="22" fill="#f5f5f5" r="2"/><circle id="Oval" cx="36" cy="22" fill="#f5f5f5" r="2"/><path id="Shape" d="m14 13v6h-1c-.76184-.0024437-1.4955864.2874756-2.05.81-2.12.09-3.95-.19-3.95 3.19v4l-3-2-3 2v-5c0-6 5-8 8-8 1.7186853.0246005 3.422983-.3162591 5-1z" fill="#cfd8dc"/><path id="Shape" d="m33 33s-1 3-3 4c-2-1-3-4-3-4z" fill="#283593"/><path id="Shape" d="m47 18v-6c0-3.608-1.657-12-17-12-9.2 0-17 3.191-17 12.326-1.285161.4510527-2.6379933.6790049-4 .674-3.479 0-9 2.443-9 9v5c-.00005521.3688869.20297845.707846.52823496.881874.32525651.1740279.71990638.1548582 1.02676504-.049874l2.445-1.632c2.7 1.8 2.6 1.8 3 1.8.55228475 0 1-.4477153 1-1 0-5.05-.244-5.876 1.171-6.093-.41852729 1.3910243-.03372523 2.8994483 1 3.92 1.309 1.308 2.665 1.173 3.92 1.173 1.0329549 3.0202427 3.3520824 5.4269052 6.332 6.571-2.462947.8455467-4.4949774 2.6250996-5.658 4.955l-2.292 4.583c-.896694 1.7230388-.4473471 3.8398317 1.072 5.05.9336298.7242641 2.1397118.998677 3.2947902.7496446 1.1550783-.2490324 2.1409475-.9960253 2.6932098-2.0406446l1.467-2.362c0 1.873.053 2.116-.166 2.6-1.2081015 2.7488103-1.8326022 5.7184235-1.834 8.721-.0309035 1.786328.8935351 3.4534499 2.4250888 4.3733771 1.5315536.9199272 3.4375429.9529008 5 .0865 1.5624572-.8664008 2.5440078-2.5005491 2.5749112-4.2868771-.0537325-1.6057267.2897624-3.1998866 1-4.641.6931836 1.4135301 1.0361653 2.9730677 1 4.547-.0174802 2.5616264 1.8793324 4.7335197 4.42 5.061 1.4175962.1655588 2.8383741-.2825792 3.9044356-1.2315268 1.0660616-.9489476 1.6757796-2.3082421 1.6755644-3.7354732.0233182-3.062926-.6020587-6.0960893-1.835-8.9-.222-.491-.165-.793-.165-2.6l1.422 2.286c.6570114 1.269186 1.9412177 2.0914509 3.3688707 2.1570553 1.4276531.0656044 2.7818584-.6354184 3.5525001-1.839.7706416-1.2035816.8406406-2.7268693.1836292-3.9960553l-2.292-4.584c-1.1629615-2.3295691-3.1945376-4.1090387-5.657-4.955 2.9800482-1.1424864 5.2992152-3.5488373 6.331-6.569h1.091c2.209139 0 4-1.790861 4-4s-1.790861-4-4-4zm-6 3c0 3.981-1.4 6-4.15 6-4.514 0-3.478-2-6.85-2-3.419 0-2.3 2-6.85 2-2.75 0-4.15-2.019-4.15-6-.0073722-1.1651919.1225227-2.3271969.387-3.462 6.9258995-2.056496 14.3001005-2.056496 21.226 0 .2644773 1.1348031.3943722 2.2968081.387 3.462zm-26-3.8v-3.675c7.226-4.673 22.694-4.727 30 0v3.675c-7.963-4.276-22.022-4.284-30 0zm15-15.2c12.14 0 14.672 5.42 14.967 9.183-7.947-4.245-21.946-4.267-29.934 0 .295-3.763 2.827-9.183 14.967-9.183zm-24 21v2.132l-1.445-.964c-.33603687-.2241995-.77396313-.2241995-1.11 0l-1.445.964v-3.132c0-5.742 5.053-7 7-7 1.3537909.0021048 2.7008701-.1901908 4-.571v3.571c-.8682255.0030526-1.7114236.2911453-2.4.82l-.236.008c-1.842.051-4.364.12-4.364 4.172zm5.587.413c-.5748315-.5756729-.7436852-1.4421721-.4270668-2.1915607.3166184-.7493887 1.0556099-1.2323213 1.8690668-1.2214393.0308321 1.3447459.185824 2.6837684.463 4-.690289.092355-1.3864078-.1221446-1.905-.587zm19.867 10.587c-.3589213.697826-.8531975 1.317201-1.454 1.822-.5987315-.506049-1.0918027-1.1251914-1.451-1.822zm-15 11.949c-.7967744.1810791-1.6239634-.137441-2.0935205-.8061376-.4695571-.6686967-.4883171-1.5548935-.0474795-2.2428624l3.479 1.987v.006c-.2662409.5353232-.7589541.9226647-1.342 1.055zm2.4-2.759-3.638-2.078 1.345-2.69c1.3457263-2.7148658 4.1169142-4.4294584 7.147-4.422h2.613c.612081 1.5586916 1.6905425 2.8903541 3.088 3.813 1.8943352 1.5599617 3.1489383 3.7620126 3.525 6.187h-9.934v-4c.0000971-.4468521-.2962789-.8395346-.7260342-.9619568s-.8885718.0551325-1.1239658.4349568zm2.346 12.81h5.61c-.409677 1.1998463-1.537141 2.0062573-2.805 2.0062573s-2.395323-.806411-2.805-2.0062573zm8.8-8c-1.94 0-2.828 4.045-2.958 6h-6.01c.0947464-2.4383049.6462944-4.8371657 1.626-7.072.128688-.2968186.2197286-.6085738.271-.928h14.142c.223 1.29 1.678 3.264 1.9 8h-6.014c-.13-1.95-1.001-6-2.957-6zm3.21 8h5.6c-.4136988 1.193603-1.5382364 1.9940094-2.8015 1.9940094s-2.3878012-.8004064-2.8015-1.9940094zm9.005-11.114 3.472-1.986c.3547648.620749.3514153 1.3836094-.0087867 2.0012192s-1.0225333.9961392-1.7375001.993c-.7149667-.0031392-1.3739485-.3874702-1.7287132-1.0082192zm1.234-6.465 1.346 2.69-3.636 2.076-2.309-3.714c-.235394-.3798243-.6942105-.557379-1.1239658-.4349568s-.7261313.5151047-.7260342.9619568v4h-2.05c-.2858718-2.6240595-1.4813459-5.0652466-3.379-6.9.9024266-.8823663 1.6191641-1.936392 2.108-3.1h2.613c3.0325167-.0107926 5.8072423 1.7039211 7.154 4.421zm-13.365-6.421c-9.5 0-14.881-2.321-15.069-12.484.696151-.4362774 1.4249893-.8180817 2.18-1.142-.765 5.299.599 10.626 5.955 10.626 5.2 0 4.411-2 6.85-2s1.67 2 6.85 2c5.355 0 6.72-5.325 5.955-10.627.75483.324298 1.4836397.7060873 2.18 1.142-.185 10.002-5.336 12.471-14.901 12.485zm18.329-8.586c-.3736719.3764489-.882583.5875048-1.413.586l-.493.000008c.2777888-1.3161631.4331185-2.6552117.464-4.000008.8134569-.010882 1.5524484.4720506 1.8690668 1.2214393.3166184.7493886.1477647 1.6158878-.4270668 2.1915607z" fill="#000"/><path id="Shape" d="m24 19c-1.6568542 0-3 1.3431458-3 3s1.3431458 3 3 3 3-1.3431458 3-3-1.3431458-3-3-3zm0 4c-.5522847 0-1-.4477153-1-1s.4477153-1 1-1 1 .4477153 1 1-.4477153 1-1 1z" fill="#000"/><path id="Shape" d="m36 25c1.2133867 0 2.3072956-.7309265 2.7716386-1.8519497s.2076757-2.4113767-.6503183-3.2693706c-.8579939-.857994-2.1483474-1.1146613-3.2693706-.6503183s-1.8519497 1.5582519-1.8519497 2.7716386c0 1.6568542 1.3431458 3 3 3zm0-4c.5522847 0 1 .4477153 1 1s-.4477153 1-1 1-1-.4477153-1-1 .4477153-1 1-1z" fill="#000"/></g></g></svg>