<svg height="512" viewBox="0 0 49 58" width="512" xmlns="http://www.w3.org/2000/svg"><g id="Page-1" fill="none" fill-rule="evenodd"><g id="044---Ninja-Costume" fill-rule="nonzero"><path id="Shape" d="m13.294 17.789c-3.049 2.405-7.294-.937-7.294 4.211v4l-3-2-3 2v-5c0-6 5-8 8-8 1.71868528.0246005 3.422983-.3162591 5-1z" fill="#c03a2b"/><path id="Shape" d="m13 18h-1c-1.6568542 0-2.99999991 1.3431458-2.99999991 3s1.34314571 3 2.99999991 3h1.79z" fill="#f9c795"/><path id="Shape" d="m44.21 24h1.79c1.6568542 0 2.9999999-1.3431458 2.9999999-3s-1.3431457-3-2.9999999-3h-1z" fill="#f9c795"/><path id="Shape" d="m18.18 43.53-.5.81c-.401036.806067-1.1428849 1.3894085-2.0207963 1.5890219s-1.7990583-.0056076-2.5092037-.5590219c-1.1302982-.9245241-1.4560452-2.5156733-.78-3.81l.52-1.05z" fill="#fdd7ad"/><path id="Shape" d="m21 44v-5l-2.82 4.53-5.29-3.02 1.77-3.54c1.523813-3.0491065 4.6413284-4.9738334 8.05-4.97h3.29s1 3 3 4c2.4373912 1.9547659 3.898622 4.8772275 4 8z" fill="#35495e"/><path id="Shape" d="m45.11 40.51-5.29 3.02-2.82-4.53v5h-4c-.101378-3.1227725-1.5626088-6.0452341-4-8 2-1 3-4 3-4h3.29c3.4086716-.0038334 6.526187 1.9208935 8.05 4.97z" fill="#2c3e50"/><path id="Shape" d="m39 54h-7.99c-.0082685-.0326539-.0116387-.0663553-.01-.1.083497-1.9004907-.389136-3.7840722-1.36-5.42-.43-.64-.87-.64-1.28 0-.9809072 1.6684227-1.4535638 3.5868526-1.36 5.52h-8.0000035l.0000035-.17c-.001681-2.8616379.5943803-5.6920777 1.75-8.31.1678686-.381146.253073-.7935355.25-1.21v-.31h16v.31c-.004118.4133422.0811629.8226901.25 1.2 1.1756741 2.6748752 1.7720685 5.5682403 1.75 8.49z" fill="#3f5c6c"/><path id="Shape" d="m27 54c-.0013242 1.2084751-.5474417 2.3519401-1.4865425 3.1125342-.9391009.7605941-2.171075 1.0572363-3.3534575.8074658-1.8305503-.4227613-3.1353931-2.0414272-3.16-3.92z" fill="#2c3e50"/><path id="Shape" d="m39 54c-.0006544 1.1423333-.4896832 2.2298838-1.3437901 2.988453s-1.9917895 1.1157714-3.1262099.981547c-1.9923475-.2731974-3.4873076-1.9592746-3.52-3.97z" fill="#2c3e50"/><path id="Shape" d="m44.85 45.36c-.7088231.5541165-1.6289182.7608514-2.5066513.5632161-.8777332-.1976353-1.6204265-.7787729-2.0233487-1.5832161l-.5-.81 5.29-3.02.52 1.05c.6770318 1.2909426.3508273 2.8801443-.78 3.8z" fill="#fdd7ad"/><path id="Shape" d="m13 18v-7c0-4 2-11 16-11s16 7 16 11v7c.0422834 2.0284799-.2240938 4.0515984-.79 6-2.08 6.79-8.1 8-15.21 8s-13.13-1.21-15.21-8c-.5659062-1.9484016-.8322834-3.9715201-.79-6z" fill="#35495e"/><path id="Shape" d="m41 20c0 2.95-.79 7-5.15 7-4.89 0-3.91-2-6.85-2s-1.96 2-6.85 2c-4.36 0-5.15-4.05-5.15-7-.0217964-1.4377913.1737433-2.8706253.58-4.25 3.6818536-1.2185425 7.5422068-1.8101028 11.42-1.75 3.8777932-.0601028 7.7381464.5314575 11.42 1.75.4062567 1.3793747.6017964 2.8122087.58 4.25z" fill="#fdd7ad"/><circle id="Oval" cx="22" cy="21" fill="#ecf0f1" r="3"/><circle id="Oval" cx="36" cy="21" fill="#ecf0f1" r="3"/><path id="Shape" d="m32 32s-1 3-3 4c-2-1-3-4-3-4z" fill="#fdd7ad"/><path id="Shape" d="m45 12v6s-5-4-16-4-16 4-16 4v-6s5-4 16-4 16 4 16 4z" fill="#e64c3c"/><g fill="#35495e"><circle id="Oval" cx="22.5" cy="21" r="1.5"/><circle id="Oval" cx="35.5" cy="21" r="1.5"/></g></g></g></svg>